<svg xmlns="http://www.w3.org/2000/svg" fill-rule="evenodd" stroke-linejoin="round" stroke-miterlimit="2" clip-rule="evenodd" viewBox="0 0 192 80">
  <g fill-rule="nonzero">
    <path fill="url(#_Linear1)" d="M53.051 20.763c-1.276-2.54-3.385-4.309-6.382-5.307l-3.052-.681-.61.046-.61-.046-3.053.681c-2.941.998-5.105 2.767-6.381 5.307L13.009 62.771h3.385c4.717 0 8.213-1.951 10.599-5.883l16.014-33.72 14.428 30.485h-17.98c-3.052 0-5.715.906-7.88 2.672-2.164 1.766-3.274 3.91-3.274 6.446h33.518s9.172.126 5.538-9.111L53.051 20.763z"/>
    <path fill="#df7744" d="M91.47 42.053l-7.695 5.915-7.696-5.915-4.27-3.282v23.932h4.27V47.455l4.207 3.214 3.489 2.7 3.488-2.7 4.207-3.214v15.248h4.27V38.771l-4.27 3.282zM119.677 48.72a6.334 6.334 0 001.025-3.488c0-3.557-2.903-6.461-6.459-6.461H99.164v23.932h16.31a7.627 7.627 0 007.622-7.624c0-2.668-1.367-4.992-3.416-6.359h-.003zm-16.243-5.679h10.843c1.197 0 2.189.993 2.189 2.191s-.992 2.19-2.189 2.19h-10.843v-4.381zm12.04 15.392h-12.04v-6.741h12.04a3.358 3.358 0 013.352 3.353 3.358 3.358 0 01-3.352 3.353v.035zM132.123 43.041h17.473v-4.27h-17.473c-3.555 0-6.424 2.904-6.424 6.461v11.011c0 3.556 2.869 6.46 6.424 6.46h17.473v-4.27h-17.473a2.204 2.204 0 01-2.188-2.19v-4.517h15.387v-4.27h-15.387v-2.224c0-1.198.991-2.191 2.188-2.191zM168.92 51.658a5.704 5.704 0 001.846-.512 6.48 6.48 0 003.758-5.88 6.41 6.41 0 00-1.879-4.548 6.408 6.408 0 00-4.546-1.879h-15.113v23.932h4.27v-11.01h4.275c1.54 0 2.874.82 3.626 2.051l.103.205 2.292 4.48 2.189 4.274h4.783l-2.187-4.274-3.417-6.839zm-11.664-4.133v-4.416h10.843c.752 0 1.265.343 1.539.616.239.24.65.788.65 1.575 0 .856-.513 1.643-1.3 1.985a1.992 1.992 0 01-.889.205l-10.843.035z"/>
  </g>
  <defs>
    <linearGradient id="_Linear1" x1="0" x2="1" y1="0" y2="0" gradientTransform="rotate(36.077 -28.715 46.17) scale(58.9089)" gradientUnits="userSpaceOnUse">
      <stop offset="0" stop-color="#faaa49"/>
      <stop offset="1" stop-color="#df7744"/>
    </linearGradient>
  </defs>
</svg>